<svg data-v-2cb57da0="" version="1.0" xmlns="http://www.w3.org/2000/svg" xmlns:xlink="http://www.w3.org/1999/xlink" width="680" height="500" viewBox="0 0 340.000000 250.000000" preserveAspectRatio="xMidYMid meet" color-interpolation-filters="sRGB" style="">  <g data-v-2cb57da0="" fill="#6a12cb" class="icon-text-wrapper icon-svg-group iconsvg" transform="translate(46.974998474121094,94.7888240814209)"><g class="iconsvg-imagesvg" transform="translate(0,0)" mask="url(#1ddb9cea-60c7-4994-b08c-ca4fd96e173e)"><g><rect fill="#6a12cb" fill-opacity="0" stroke-width="2" x="0" y="0" width="60" height="60.42235224217279" class="image-rect"></rect> <svg filter="url(#colors9455084502)" x="0" y="0" width="60" height="60.42235224217279" filtersec="colorsf8400864159" class="image-svg-svg primary" style="overflow: visible;"><svg xmlns="http://www.w3.org/2000/svg" viewBox="0.009999990463256836 0 61.86005401611328 62.29553985595703"><defs><clipPath id="a9d86aed2-3644-4c92-a2b4-3627c155949d" transform="translate(.31 4.64)"><path fill="none" d="M15.31 0h30.63l15.32 26.52-15.32 26.51H15.31L0 26.52 15.31 0z"></path></clipPath></defs><g clip-path="url(#a9d86aed2-3644-4c92-a2b4-3627c155949d)"><path d="M30.94 0h.68a9.74 9.74 0 0 0-.92.58 47.43 47.43 0 0 0-13.28 16.61l-.83-.18c-1.35-.27-2.69-.56-4.05-.8A38.06 38.06 0 0 0 14.21 5a30.77 30.77 0 0 1 16.74-5zm4.29.33a30.86 30.86 0 0 1 17.78 9l-.42-.1a23.37 23.37 0 0 0-4-.23 34.15 34.15 0 0 0-12.01 2.64c-4.7 1.93-8.65 4.65-10.42 7.77-2.38-.71-4.7-1.32-6.92-1.83A45.92 45.92 0 0 1 31.79 2.03 16.77 16.77 0 0 1 34.44.64l.79-.33zM12.37 6.28a36.41 36.41 0 0 1-1.66 9.65 21.49 21.49 0 0 0-3.52-.15 17.64 17.64 0 0 0-3.41.52 31.15 31.15 0 0 1 8.59-10zm37.13 4.55a21.56 21.56 0 0 1 2.71.21 25.73 25.73 0 0 1 3.18 1.09 30.85 30.85 0 0 1 5.62 26.15c-8.83-8.75-21.5-14.64-33.05-18.32 1.56-2.32 5.06-4.89 9.35-6.64a32.11 32.11 0 0 1 12.19-2.49zM8.12 17.56a19.38 19.38 0 0 1 2 .12 51.89 51.89 0 0 1-2.63 6.1C5 28.47 1.97 31.68.49 36.4a30.67 30.67 0 0 1-.48-5.24 31.35 31.35 0 0 1 2.7-12.63 15.36 15.36 0 0 1 5.41-.97zm3.85.38c1.38.24 2.78.55 4.26.84l.45.1a34.92 34.92 0 0 0-1.56 4.76c-2.8 11.3-3.54 24.37 2 35.35A31.07 31.07 0 0 1 1.5 40.64a16.23 16.23 0 0 1 .21-1.78c1.06-5.38 4.43-8.6 7.41-14.22a50.81 50.81 0 0 0 2.84-6.67zm6.51 1.33c2.23.51 4.56 1.12 7 1.83-1.57 4.64-.91 9.43.37 13.73 2.19 7.39 7.67 13.63 12.32 19a74.61 74.61 0 0 0 5.75 5.57 30.49 30.49 0 0 1-24 .83c-6.45-10.81-5.9-24.35-3-36.14a33.09 33.09 0 0 1 1.61-4.84zm8.7 2.37c11.75 3.69 24.71 9.81 33.29 18.69a31.12 31.12 0 0 1-14.82 18.23 83.46 83.46 0 0 1-6.14-5.92c-4.66-5.39-9.93-11.49-12-18.34-1.2-4.12-1.76-8.51-.33-12.66z" fill="#000000"></path></g></svg></svg> <defs><filter id="colors9455084502"><feColorMatrix type="matrix" values="0 0 0 0 0.4140625  0 0 0 0 0.0703125  0 0 0 0 0.79296875  0 0 0 1 0" class="icon-fecolormatrix"></feColorMatrix></filter> <filter id="colorsf8400864159"><feColorMatrix type="matrix" values="0 0 0 0 0.99609375  0 0 0 0 0.99609375  0 0 0 0 0.99609375  0 0 0 1 0" class="icon-fecolormatrix"></feColorMatrix></filter> <filter id="colorsb6597268049"><feColorMatrix type="matrix" values="0 0 0 0 0  0 0 0 0 0  0 0 0 0 0  0 0 0 1 0" class="icon-fecolormatrix"></feColorMatrix></filter></defs></g><rect v-gra="id" width="72" height="72.4223518371582" transform="translate(-6, -6)" style="pointer-events:none;" fill="url(#LyV2s1pZVlvwMbxU8oqRE)"></rect></g> <g transform="translate(67,22.061176300048828)"><g data-gra="path-name" fill-rule="" class="tp-name iconsvg-namesvg" fill="url(#57244308-6e87-4209-8f27-8cb42c4f29fd)"><g transform="scale(1)"><g><path d="M3.6-15.84L0.32-15.84 5.45-8.24 5.45-8.19-0.2 0 3.24 0 7.06-5.88 7.15-5.88 11.04 0 14.37 0 8.89-8.03 8.89-8.08 13.87-15.84 10.63-15.84 7.31-10.41 7.22-10.41ZM18.89-13.4L18.89-15.84 15.82-15.84 15.82-13.4ZM15.82 0L18.87 0 18.87-11.31 15.82-11.31ZM30.12-15.84L26.25-15.84 20.57 0 23.87 0 28.08-12.56 28.31-12.56 32.81 0 36.34 0ZM45.48-16.07L45.48-13.17C48.47-13.17 50.73-11.45 50.73-7.92 50.73-4.39 48.47-2.65 45.48-2.65 42.58-2.65 40.34-4.39 40.34-7.92 40.34-7.92 37.27-7.92 37.27-7.92 37.27-2.69 40.91 0.23 45.48 0.23 50.16 0.23 53.79-2.47 53.79-7.92 53.79-13.12 50.16-16.07 45.48-16.07ZM57.72-15.84L54.44-15.84 59.58-8.24 59.58-8.19 53.92 0 57.36 0 61.18-5.88 61.27-5.88 65.17 0 68.49 0 63.02-8.03 63.02-8.08 67.99-15.84 64.76-15.84 61.43-10.41 61.34-10.41ZM73.02-13.4L73.02-15.84 69.94-15.84 69.94-13.4ZM69.94 0L73 0 73-11.31 69.94-11.31ZM86.8 0L89.79 0 89.79-15.84 86.87-15.84 86.87-4.93 86.75-4.93 79.1-15.84 75.96-15.84ZM76.1 0L79.06 0 79.06-7.76 76.1-11.99ZM91.98-15.84L92.32-9.05 94.15-9.05 94.45-15.84ZM102.14-13.6C104.2-13.6 105.62-12.45 105.62-10.63L108.68-10.63C108.68-14.19 106.17-16.07 102.12-16.07ZM96.03-11.81C96.03-6.04 105.62-8.12 105.62-4.39 105.62-3.1 104.29-2.26 102.39-2.26 100.19-2.26 98.9-3.39 98.9-5.23L95.8-5.23C95.8-1.47 98.45 0.23 102.46 0.23 106.12 0.23 108.68-1.61 108.68-4.39 108.68-10.14 98.99-8.39 98.99-11.77ZM117.68 0L124.2 0C129.07 0 130.42-1.9 130.42-4.41 130.42-6.72 128.27-8.01 125.69-8.12L125.69-8.24C127.66-8.46 129.02-9.66 129.02-11.79 129.02-14.01 128-15.84 123.59-15.84L117.68-15.84ZM120.74-9.25L120.74-13.44 123.25-13.44C125.26-13.44 126.12-12.83 126.12-11.45 126.12-9.82 124.86-9.25 123.14-9.25ZM120.74-2.42L120.74-6.95 123.43-6.95C125.67-6.95 127.19-6.15 127.19-4.57 127.19-2.99 126.03-2.42 123.48-2.42ZM135.38-4.73L135.38-15.84 132.3-15.84 132.3-4.73ZM132.3 0L143.82 0 143.82-2.99 132.3-2.99ZM152.69-16.07L152.69-13.17C155.68-13.17 157.94-11.45 157.94-7.92 157.94-4.39 155.68-2.65 152.69-2.65 149.79-2.65 147.55-4.39 147.55-7.92 147.55-7.92 144.48-7.92 144.48-7.92 144.48-2.69 148.12 0.23 152.69 0.23 157.37 0.23 160.99-2.47 160.99-7.92 160.99-13.12 157.37-16.07 152.69-16.07ZM165.7-7.92C165.7-11 167.83-13.37 170.99-13.37 173.42-13.37 174.98-12.24 175.57-10.43L178.8-10.43C178.03-14.39 175.29-16.07 170.97-16.07 165.93-16.07 162.74-12.9 162.74-7.92ZM170.75 0L175.99-3.78 175.99 0 178.85 0C178.85-0.11 178.85-8.33 178.85-8.44L170.43-8.44 170.43-6.22 175-6.22 166.36 0Z" transform="translate(0.20000000298023224, 16.06999969482422)"></path></g> <!----> <!----> <!----> <!----> <!----> <!----> <!----></g></g> <!----></g></g><defs v-gra="od"><linearGradient x1="0" y1="1" x2="0" y2="0" id="57244308-6e87-4209-8f27-8cb42c4f29fd"><stop offset="0%" stop-color="#6a12cb"></stop><stop offset="100%" stop-color="#2575fc"></stop></linearGradient><filter id="42443b3f1de60f6b6fd3b6a9844b4764" filterUnits="userSpaceOnUse"><feColorMatrix type="matrix" values="0 0 0 0 0.99609375  0 0 0 0 0.99609375  0 0 0 0 0.99609375  0 0 0 1 0"></feColorMatrix></filter></defs><defs v-gra="id"><filter id="a158dc87-9966-49d3-bc37-c1baa564c44f" filterUnits="userSpaceOnUse"><feColorMatrix type="matrix" values="0 0 0 0 0.99609375  0 0 0 0 0.99609375  0 0 0 0 0.99609375  0 0 0 1 0"></feColorMatrix></filter><linearGradient x1="0" y1="1" x2="0" y2="0" id="LyV2s1pZVlvwMbxU8oqRE"><stop offset="0%" stop-color="#6a12cb"></stop><stop offset="100%" stop-color="#2575fc"></stop></linearGradient><filter id="42443b3f1de60f6b6fd3b6a9844b4764" filterUnits="userSpaceOnUse"><feColorMatrix type="matrix" values="0 0 0 0 0.99609375  0 0 0 0 0.99609375  0 0 0 0 0.99609375  0 0 0 1 0"></feColorMatrix></filter></defs><mask v-gra="im" id="1ddb9cea-60c7-4994-b08c-ca4fd96e173e"><g class="iconsvg-imagesvg" filter="url(#a158dc87-9966-49d3-bc37-c1baa564c44f)"><g><rect fill="#6a12cb" fill-opacity="0" stroke-width="2" x="0" y="0" width="60" height="60.42235224217279" class="image-rect"></rect> <svg x="0" y="0" width="60" height="60.42235224217279" filtersec="colorsf8400864159" class="image-svg-svg primary" style="overflow: visible;"><svg xmlns="http://www.w3.org/2000/svg" viewBox="0.009999990463256836 0 61.86005401611328 62.29553985595703"><defs><clipPath id="a9d86aed2-3644-4c92-a2b4-3627c155949d" transform="translate(.31 4.64)"><path fill="none" d="M15.31 0h30.63l15.32 26.52-15.32 26.51H15.31L0 26.52 15.31 0z"></path></clipPath></defs><g clip-path="url(#a9d86aed2-3644-4c92-a2b4-3627c155949d)"><path d="M30.94 0h.68a9.74 9.74 0 0 0-.92.58 47.43 47.43 0 0 0-13.28 16.61l-.83-.18c-1.35-.27-2.69-.56-4.05-.8A38.06 38.06 0 0 0 14.21 5a30.77 30.77 0 0 1 16.74-5zm4.29.33a30.86 30.86 0 0 1 17.78 9l-.42-.1a23.37 23.37 0 0 0-4-.23 34.15 34.15 0 0 0-12.01 2.64c-4.7 1.93-8.65 4.65-10.42 7.77-2.38-.71-4.7-1.32-6.92-1.83A45.92 45.92 0 0 1 31.79 2.03 16.77 16.77 0 0 1 34.44.64l.79-.33zM12.37 6.28a36.41 36.41 0 0 1-1.66 9.65 21.49 21.49 0 0 0-3.52-.15 17.64 17.64 0 0 0-3.41.52 31.15 31.15 0 0 1 8.59-10zm37.13 4.55a21.56 21.56 0 0 1 2.71.21 25.73 25.73 0 0 1 3.18 1.09 30.85 30.85 0 0 1 5.62 26.15c-8.83-8.75-21.5-14.64-33.05-18.32 1.56-2.32 5.06-4.89 9.35-6.64a32.11 32.11 0 0 1 12.19-2.49zM8.12 17.56a19.38 19.38 0 0 1 2 .12 51.89 51.89 0 0 1-2.63 6.1C5 28.47 1.97 31.68.49 36.4a30.67 30.67 0 0 1-.48-5.24 31.35 31.35 0 0 1 2.7-12.63 15.36 15.36 0 0 1 5.41-.97zm3.85.38c1.38.24 2.78.55 4.26.84l.45.1a34.92 34.92 0 0 0-1.56 4.76c-2.8 11.3-3.54 24.37 2 35.35A31.07 31.07 0 0 1 1.5 40.64a16.23 16.23 0 0 1 .21-1.78c1.06-5.38 4.43-8.6 7.41-14.22a50.81 50.81 0 0 0 2.84-6.67zm6.51 1.33c2.23.51 4.56 1.12 7 1.83-1.57 4.64-.91 9.43.37 13.73 2.19 7.39 7.67 13.63 12.32 19a74.61 74.61 0 0 0 5.75 5.57 30.49 30.49 0 0 1-24 .83c-6.45-10.81-5.9-24.35-3-36.14a33.09 33.09 0 0 1 1.61-4.84zm8.7 2.37c11.75 3.69 24.71 9.81 33.29 18.69a31.12 31.12 0 0 1-14.82 18.23 83.46 83.46 0 0 1-6.14-5.92c-4.66-5.39-9.93-11.49-12-18.34-1.2-4.12-1.76-8.51-.33-12.66z" fill="#000000"></path></g></svg></svg> <defs><filter id="colors9455084502"><feColorMatrix type="matrix" values="0 0 0 0 0.4140625  0 0 0 0 0.0703125  0 0 0 0 0.79296875  0 0 0 1 0" class="icon-fecolormatrix"></feColorMatrix></filter> <filter id="colorsf8400864159"><feColorMatrix type="matrix" values="0 0 0 0 0.99609375  0 0 0 0 0.99609375  0 0 0 0 0.99609375  0 0 0 1 0" class="icon-fecolormatrix"></feColorMatrix></filter> <filter id="colorsb6597268049"><feColorMatrix type="matrix" values="0 0 0 0 0  0 0 0 0 0  0 0 0 0 0  0 0 0 1 0" class="icon-fecolormatrix"></feColorMatrix></filter></defs></g></g></mask></svg>