<svg data-v-2cb57da0="" version="1.0" xmlns="http://www.w3.org/2000/svg" xmlns:xlink="http://www.w3.org/1999/xlink" width="680" height="500" viewBox="0 0 340.000000 250.000000" preserveAspectRatio="xMidYMid meet" color-interpolation-filters="sRGB" style="">  <g data-v-2cb57da0="" fill="#dd2a67" class="iconlinesvg-g iconlinesvg" transform="translate(71.74617004394531,97.03425025939941)"><g class="tp-name"><g transform="translate(0, 0)"><g><g class="imagesvg"><g><rect fill="#dd2a67" fill-opacity="0" stroke-width="2" x="0" y="0" width="61.11019635892369" height="55.9314988778258" class="image-rect"></rect> <svg x="0" y="0" width="61.11019635892369" height="55.9314988778258" filtersec="colorsb7400921248" class="image-svg-svg primary" style="overflow: visible;"><svg xmlns="http://www.w3.org/2000/svg" viewBox="-0.03698696568608284 -0.012278338894248009 63.383541107177734 58.01227951049805"><defs><linearGradient id="a342146fa-5ed5-4d90-a4bb-a5309229a4eb" x1="8.12" y1="56" x2="55.74" y2="8.38" gradientUnits="userSpaceOnUse"><stop offset="0" stop-color="#e12225"></stop><stop offset=".02" stop-color="#e0232d"></stop><stop offset=".05" stop-color="#df2643"></stop><stop offset=".09" stop-color="#dd2a67"></stop><stop offset=".11" stop-color="#db2d7f"></stop><stop offset=".31" stop-color="#62398c"></stop><stop offset=".49" stop-color="#32b4b4"></stop><stop offset=".64" stop-color="#26569e"></stop><stop offset=".82" stop-color="#e46a2b"></stop><stop offset="1" stop-color="#f1c120"></stop></linearGradient></defs><g><path d="M45.17 58a44.25 44.25 0 0 1-8-.73A45.22 45.22 0 0 1 32 55.91a23.79 23.79 0 0 1-7.18 1.61h-.71C11.17 57.54.58 45.27 0 29.61A31.89 31.89 0 0 1 6.2 9.13C10.5 3.48 16.4.24 22.81 0a20.24 20.24 0 0 1 9.25 1.88A35.46 35.46 0 0 1 42 .34c6.5.01 14.6 2.36 16.44 6.15a3.5 3.5 0 0 1-.44 3.85 9.08 9.08 0 0 1-7.48 3.23 19.87 19.87 0 0 1-11-3.66c-3-2.26-6.71-4.73-7.68-5.37C24.67 6.91 13.38 13.26 14 29.5v.09c0 .69-.39 17 18 23.72a29.64 29.64 0 0 0 10.34-6.94c5.61-5.81 10.17-8.63 13.94-8.63a6.72 6.72 0 0 1 2.18.35 7.05 7.05 0 0 1 4.29 3.82c.68 1.56 1.12 4.25-.64 8.18-2.32 5.2-8.18 7.91-16.94 7.91zm-9.64-3.62q1 .27 2.12.5a42.61 42.61 0 0 0 7.52.68c5.39 0 12.31-1.13 14.72-6.48 1.1-2.46 1.32-4.61.63-6.2a4.63 4.63 0 0 0-2.84-2.48C54.6 39.37 50 42 44.1 48.08a32.34 32.34 0 0 1-8.57 6.33zm-12-52h-.63c-5.66.2-10.9 3.1-14.76 8.15a29.44 29.44 0 0 0-5.67 19c.52 14.59 10.38 26 22.3 25.55a16.57 16.57 0 0 0 3.67-.58 27.92 27.92 0 0 1-16.93-24.95c-.56-16.23 10-23.42 17-26.38a17.62 17.62 0 0 0-4.98-.72zm11.38 1.28c1.63 1.11 4 2.74 6.06 4.29a17.49 17.49 0 0 0 9.52 3.18c2.5 0 4.37-.77 5.56-2.29a1.08 1.08 0 0 0 .19-1.27c-1.07-2.2-7.49-4.76-14.18-4.77a31.83 31.83 0 0 0-7.15.86z" fill="url(#a342146fa-5ed5-4d90-a4bb-a5309229a4eb)"></path></g></svg></svg> <!----></g></g></g></g><g transform="translate(65, 4.641461786267037)"><g data-gra="path-name" fill="#dd2a67" transform="scale(1)"><path d="M14.17-45.92L18.32-45.92L3.18 0.73L-0.49 0.73L14.17-45.92Z" transform="translate(0.48846675712347354, 45.915875169606515)"></path></g></g><g transform="translate(87, 4.641461786267037)"><g data-gra="path-name" fill="#dd2a67" transform="scale(1)"><path d="M42.01-31.51L42.01-31.51L36.15-31.51Q33.95-40.54 23.69-40.79L23.69-40.79Q9.53-40.05 9.04-22.71L9.04-22.71Q9.04-4.15 23.93-4.15L23.93-4.15Q34.19-4.40 36.64-16.61L36.64-16.61L42.50-16.61Q39.81 0.24 22.71 0.73L22.71 0.73Q3.18 0 2.69-22.47L2.69-22.47Q3.66-44.94 23.69-45.92L23.69-45.92Q39.57-45.43 42.01-31.51Z" transform="translate(-2.6865671641791042, 45.915875169606515)"></path></g></g><g transform="translate(130, 4.641461786267037)"><g data-gra="path-name" fill="#dd2a67" transform="scale(1)"><path d="M2.44-18.07L16.12-18.07L16.12-31.51L20.52-31.51L20.52-18.07L33.95-18.07L33.95-13.43L20.52-13.43L20.52 0L16.12 0L16.12-13.43L2.44-13.43L2.44-18.07Z" transform="translate(-2.4423337856173677, 45.915875169606515)"></path></g></g><g transform="translate(165, 4.641461786267037)"><g data-gra="path-name" fill="#dd2a67" transform="scale(1)"><path d="M2.44-18.07L16.12-18.07L16.12-31.51L20.52-31.51L20.52-18.07L33.95-18.07L33.95-13.43L20.52-13.43L20.52 0L16.12 0L16.12-13.43L2.44-13.43L2.44-18.07Z" transform="translate(-2.4423337856173677, 45.915875169606515)"></path></g></g></g> <!----></g><defs v-gra="od"></defs></svg>